<?xml version="1.0" ?><svg xmlns="http://www.w3.org/2000/svg" xmlns:xlink="http://www.w3.org/1999/xlink" version="1.1" id="Layer_1" viewBox="0 0 1500 1500" style="enable-background:new 0 0 1500 1500;" xml:space="preserve"><style type="text/css">
	.st0{fill:#FFC000;}
	.st1{fill:none;stroke:#FF478B;stroke-width:3.3423;stroke-miterlimit:10;}
	.st2{fill:#C2DBFF;}
	.st3{fill:#202482;}
	.st4{fill:#006AD3;}
	.st5{fill:#FFFFFF;}
	.st6{fill:#FF4B85;}
	.st7{fill:#FF478B;}
	.st8{fill:none;stroke:#002D7D;stroke-width:0.8356;stroke-miterlimit:10;}
	.st9{fill:none;stroke:#FFFFFF;stroke-width:1.4171;stroke-miterlimit:10;}
	.st10{fill:#8FC2FF;}
	.st11{fill:none;stroke:#0059E2;stroke-width:1.621;stroke-miterlimit:10;}
	.st12{fill:none;stroke:#FFFFFF;stroke-width:1.621;stroke-miterlimit:10;}
	.st13{fill:#2E3744;}
	.st14{fill:none;stroke:#0059E2;stroke-width:0.8356;stroke-miterlimit:10;}
	.st15{fill:#0059E2;}
	.st16{fill:#EF8D7F;}
	.st17{fill:#FF7F72;}
	.st18{fill:#FF5850;}
	.st19{fill:none;}
</style><circle class="st0" cx="1297.9" cy="324.2" r="191.8"/><circle class="st1" cx="835" cy="1229.5" r="34.9"/><circle class="st2" cx="221.3" cy="240.5" r="24.1"/><g><g><path class="st3" d="M1305.6,1098.1H89.8c-24,0-43.4-19.4-43.4-43.4V367.3c0-24,19.4-43.4,43.4-43.4h1215.8    c24,0,43.4,19.4,43.4,43.4v687.4C1349,1078.6,1329.6,1098.1,1305.6,1098.1z"/><path class="st4" d="M1335.8,1098.1H120c-24,0-43.4-19.4-43.4-43.4V367.3c0-24,19.4-43.4,43.4-43.4h1215.8    c24,0,43.4,19.4,43.4,43.4v687.4C1379.2,1078.6,1359.8,1098.1,1335.8,1098.1z"/><path class="st5" d="M1332.2,398.9v624.2c0,15.8-12.8,28.6-28.6,28.6H152.4c-15.8,0-28.7-12.8-28.7-28.6V398.9    c0-15.8,12.8-28.6,28.7-28.6h1151.2C1319.3,370.2,1332.2,383,1332.2,398.9z"/></g><g><path class="st2" d="M628.8,712.5H463.9c-6.5,0-11.8-5.3-11.8-11.8V535.8c0-6.5,5.3-11.8,11.8-11.8h164.9    c6.5,0,11.8,5.3,11.8,11.8v164.9C640.6,707.3,635.3,712.5,628.8,712.5z"/><g><path class="st6" d="M586.6,683.4H506c-2.2,0-4-1.8-4-4v-98.3c0-2.2,1.8-4,4-4h80.5c2.2,0,4,1.8,4,4v98.3     C590.6,681.6,588.8,683.4,586.6,683.4z"/><rect x="516.8" y="553.2" class="st0" width="59.1" height="23.9"/></g></g><g><path class="st2" d="M891.1,712.5H726.2c-6.5,0-11.8-5.3-11.8-11.8V535.8c0-6.5,5.3-11.8,11.8-11.8h164.9    c6.5,0,11.8,5.3,11.8,11.8v164.9C902.9,707.3,897.7,712.5,891.1,712.5z"/></g><g><path class="st2" d="M1152.1,712.5H987.2c-6.5,0-11.8-5.3-11.8-11.8V535.8c0-6.5,5.3-11.8,11.8-11.8h164.9    c6.5,0,11.8,5.3,11.8,11.8v164.9C1163.9,707.3,1158.6,712.5,1152.1,712.5z"/><g><polygon class="st4" points="1113.6,693.2 1092.1,617.9 1100,578.3 1039.2,578.3 1047.2,617.9 1025.7,693.2    "/><polygon class="st7" points="1084.8,578.3 1054.4,578.3 1049.2,547.9 1090,547.9    "/></g></g><g><path class="st2" d="M628.8,963.2H463.9c-6.5,0-11.8-5.3-11.8-11.8V786.5c0-6.5,5.3-11.8,11.8-11.8h164.9    c6.5,0,11.8,5.3,11.8,11.8v164.9C640.6,957.9,635.3,963.2,628.8,963.2z"/></g><g><path class="st2" d="M891.1,963.2H726.2c-6.5,0-11.8-5.3-11.8-11.8V786.5c0-6.5,5.3-11.8,11.8-11.8h164.9    c6.5,0,11.8,5.3,11.8,11.8v164.9C902.9,957.9,897.7,963.2,891.1,963.2z"/></g><g><path class="st2" d="M1152.1,963.2H987.2c-6.5,0-11.8-5.3-11.8-11.8V786.5c0-6.5,5.3-11.8,11.8-11.8h164.9    c6.5,0,11.8,5.3,11.8,11.8v164.9C1163.9,957.9,1158.6,963.2,1152.1,963.2z"/></g><path class="st2" d="M1332.2,398.9v68.3H123.7v-68.3c0-15.8,12.8-28.6,28.7-28.6h1151.2C1319.3,370.2,1332.2,383,1332.2,398.9z"/><rect x="161.2" y="523" class="st2" width="242.4" height="26.2"/><rect x="161.2" y="579.5" class="st2" width="242.4" height="6.3"/><rect x="161.2" y="620" class="st2" width="203.1" height="6.3"/><rect x="161.2" y="660.5" class="st2" width="203.1" height="6.3"/><rect x="161.2" y="700.9" class="st2" width="168.5" height="6.3"/><rect x="161.2" y="741.4" class="st2" width="178.1" height="6.3"/><rect x="161.2" y="781.9" class="st2" width="178.1" height="6.3"/><rect x="161.2" y="822.4" class="st2" width="242.4" height="6.3"/><rect x="161.2" y="862.9" class="st2" width="210.6" height="6.3"/><rect x="161.2" y="903.4" class="st2" width="186.6" height="6.3"/><rect x="161.2" y="943.9" class="st2" width="210.6" height="6.3"/><line class="st8" x1="1285.9" y1="494.4" x2="1285.9" y2="1009.5"/><path class="st2" d="M1285.9,737.8L1285.9,737.8c-6.6,0-11.9-5.3-11.9-11.9v-53.5c0-6.6,5.3-11.9,11.9-11.9l0,0   c6.6,0,11.9,5.3,11.9,11.9v53.5C1297.9,732.5,1292.5,737.8,1285.9,737.8z"/><g><g><path class="st6" d="M789,809h58.2v36.4c0,8.5,5.2,16.2,13.1,19.4l11.7,4.7c8.2,3.3,13.5,11.2,13.5,20v18.9h-59.2l-7.3-9.1     l-9,9.1H789L789,809L789,809z"/><polygon class="st5" points="789,893.7 789,908.4 810,908.4 819,899.2 826.2,908.4 885.5,908.4 885.5,893.7    "/><path class="st9" d="M815.8,893.7c0-14.9-12-28-26.9-28.1"/><path class="st9" d="M862.3,865.6c0,0-11.2,5.8-11.2,28.1"/><line class="st9" x1="835" y1="809" x2="835" y2="855.5"/></g><g><path class="st0" d="M748.2,823.7h58.2v36.4c0,8.5,5.2,16.2,13.1,19.4l11.7,4.7c8.2,3.3,13.5,11.2,13.5,20V923h-59.2l-7.3-9.1     l-9,9.1h-21.1L748.2,823.7L748.2,823.7z"/><polygon class="st5" points="748.2,908.4 748.2,923 769.3,923 778.2,913.9 785.5,923 844.8,923 844.8,908.4    "/><path class="st9" d="M775.1,908.4c0-14.9-12-28-26.9-28.1"/><path class="st9" d="M821.6,880.3c0,0-11.2,5.8-11.2,28.1"/><line class="st9" x1="794.3" y1="823.7" x2="794.3" y2="870.2"/></g></g><g><path class="st5" d="M873.9,673.5H748.8c-6.5,0-11.3-5.9-10-12.3l14.1-67.7c1-4.7,5.2-8.2,10-8.2h96.9c4.8,0,9,3.4,10,8.2    l14.1,67.7C885.2,667.6,880.4,673.5,873.9,673.5z"/><path class="st10" d="M876.5,625.7l-6.7-32.2c-1-4.7-5.2-8.2-10-8.2h-96.9c-4.8,0-9,3.4-10,8.2l-6.7,32.2c1.8,2.1,3.7,4,6,5.6    c15.8,10.8,36.5,17.4,59.1,17.4s43.3-6.6,59.1-17.4C872.7,629.7,874.7,627.8,876.5,625.7z"/><path class="st5" d="M859.8,585.4h-96.9c-4.8,0-9.1,3.4-10,8.2l-1.6,7.7c-2.1,10.1,2.1,20.6,10.9,26.2    c13.2,8.5,30.4,13.6,49.2,13.6c18.9,0,36-5.1,49.2-13.6c8.7-5.6,13-16.1,10.9-26.2l-1.6-7.7C868.8,588.8,864.6,585.4,859.8,585.4z    "/><path class="st11" d="M818,629.5h-13.2c-2.1,0-3.8-1.7-3.8-3.8l0,0c0-2.1,1.7-3.8,3.8-3.8H818c2.1,0,3.8,1.7,3.8,3.8l0,0    C821.8,627.7,820.1,629.5,818,629.5z"/><path class="st12" d="M839,605.6h-55.3v-14.8c0-15.3,12.4-27.7,27.7-27.7l0,0c15.3,0,27.7,12.4,27.7,27.7L839,605.6L839,605.6z"/></g><g><path class="st13" d="M1095.7,833.1h-50.1l3.2-12.2c0.9-3.4,4-5.8,7.6-5.8h28.6c3.6,0,6.7,2.4,7.6,5.8L1095.7,833.1z"/><path class="st5" d="M1127.6,916.2h-113.9c-3.9,0-7.2-3.2-7.2-7.2v-71.8c0-3.9,3.2-7.2,7.2-7.2h113.9c3.9,0,7.2,3.2,7.2,7.2V909    C1134.8,913,1131.6,916.2,1127.6,916.2z"/><path class="st14" d="M1103.6,873.9c0,18.2-14.7,32.9-32.9,32.9c-18.2,0-32.9-14.7-32.9-32.9c0-18.2,14.7-32.9,32.9-32.9    C1088.8,841,1103.6,855.8,1103.6,873.9z"/><path class="st13" d="M1086.8,873.9c0,8.9-7.2,16.1-16.1,16.1s-16.1-7.2-16.1-16.1c0-8.9,7.2-16.1,16.1-16.1    S1086.8,865,1086.8,873.9z"/></g><path class="st15" d="M576.9,819.9l-17.5-2.5c-0.8,6.5-6.3,11.5-13,11.5c-6.7,0-12.2-5-13-11.5l-17.5,2.5   c-6.3,0.9-12.1,3.9-16.5,8.5l-22.5,23.4l20.1,21.1l10.5-9.6l1.9,67.3h74.1l1.9-67.3l10.5,9.6l20.1-21.1l-22.5-23.4   C589,823.8,583.2,820.8,576.9,819.9z"/></g><g><path class="st16" d="M701.6,770.7c0,0,36.3,3,37.6,12.7c1.3,9.7-1.5,26.6-35.8,29.9h-35.5c0,0,10.6-29.4,10.1-30.4   C677.5,781.9,701.6,770.7,701.6,770.7z"/><path class="st17" d="M759.8,914.6c4.9,2.6,6.6,8.8,3.8,13.6c-16.7,28.8-83.1,143.3-89.1,152.6c-6.9,10.7-23.6,35.8-79.2,48.7   c-55.6,12.9-78.4,50.2-78.4,50.2H345.7c0,0,40.3-63.9,73.8-229.9c0,0,25.9-137.8,74.6-133.2c0,0,29.7-31.2,58.6-25.1   c0,0,54.8-32.7,86-32.7l75-88.6c7.4-8.8,20.5-10.5,29.6-3.5c2.9,2.2,5.2,5.2,5.8,9.1c2.3,14.5-16.7,51-47.2,95.2   c-30.4,44.2-105.8,184.2-73.1,245.9c0,0,33.5-25.1,62.4-65.5C715.5,917.5,744.1,906.2,759.8,914.6z"/><path class="st18" d="M587.5,818.1c7.6-10.6,15.8-20.8,24.3-30.7c4.3-4.9,8.7-9.8,13.1-14.5s9-9.4,13.7-13.9l-0.2-0.2   c-10,8.5-19.3,17.7-28.1,27.5c-4.4,4.8-8.7,9.8-12.8,14.9c-4.1,5.1-8.1,10.3-12,15.6c-1.9,2.7-3.7,5.4-5.6,8.1   c-1.8,2.8-3.6,5.5-5.3,8.3c-3.4,5.6-6.7,11.3-9.6,17.3l-1.1,2.2c-0.4,0.7-0.7,1.5-1,2.2c-0.7,1.5-1.4,3-2,4.5l-1.8,4.6   c-0.6,1.5-1.1,3.1-1.7,4.6c-0.6,1.5-1,3.1-1.5,4.7l-0.7,2.4c-0.2,0.8-0.4,1.6-0.6,2.4l-0.6,2.4c-0.2,0.8-0.4,1.6-0.5,2.4l-0.8,4.8   l0.2,0c1.3-6.4,3.3-12.6,5.6-18.7c2.3-6.1,5.1-12,8.1-17.8c1.5-2.9,3.1-5.7,4.7-8.6c1.7-2.8,3.3-5.6,5.1-8.4L587.5,818.1z"/><path class="st18" d="M553.2,791.2c-8.1,4.1-15.3,9.9-21.7,16.4c-3.2,3.2-6.1,6.8-8.9,10.4c-2.7,3.7-5.2,7.5-7.5,11.5   c-4.5,8-8,16.5-10.3,25.4c-0.5,2.2-1.1,4.4-1.5,6.7c-0.2,1.1-0.4,2.2-0.6,3.4l-0.5,3.4l-0.2,1.7c-0.1,0.6-0.1,1.1-0.1,1.7l-0.3,3.4   c-0.2,2.3-0.2,4.5-0.2,6.8l0.2,0c0.7-9,2.4-17.9,4.9-26.5c1.3-4.3,2.8-8.6,4.6-12.7c0.8-2.1,1.8-4.1,2.8-6.1c1-2,2-4,3.2-5.9   c4.4-7.9,9.7-15.2,15.8-21.8c3-3.3,6.3-6.5,9.7-9.4c3.4-2.9,7-5.7,10.8-8.1L553.2,791.2z"/><path class="st18" d="M494.7,815.9c-5,3.8-9.1,8.5-12.8,13.6l-1.4,1.9c-0.4,0.6-0.8,1.3-1.3,2c-0.8,1.3-1.7,2.6-2.4,4   c-0.4,0.7-0.8,1.4-1.1,2.1s-0.8,1.4-1.1,2.1l-2,4.2c-0.3,0.7-0.6,1.4-0.9,2.2l-0.9,2.2l-0.9,2.2c-0.3,0.7-0.5,1.5-0.8,2.2l-1.4,4.5   c-0.4,1.5-0.8,3-1.1,4.5c-0.8,3-1.2,6.1-1.7,9.2l-0.2,1.2l-0.1,1.2c-0.1,0.8-0.1,1.5-0.2,2.3l-0.1,2.3l-0.1,2.3l0.2,0l0.8-4.5   l0.4-2.3l0.2-1.1l0.3-1.1l1-4.5c0.2-0.7,0.3-1.5,0.5-2.2l0.6-2.2c0.4-1.5,0.9-2.9,1.3-4.4l1.5-4.3c0.3-0.7,0.5-1.4,0.8-2.2l0.9-2.1   l0.9-2.1c0.3-0.7,0.6-1.4,0.9-2.1l1.9-4.2c0.7-1.4,1.4-2.7,2.1-4.1c0.7-1.4,1.5-2.7,2.3-4c0.4-0.7,0.8-1.3,1.2-2l1.2-1.9   c3.3-5.1,7.1-10.1,11.4-14.4L494.7,815.9z"/><path class="st17" d="M517,1179.7l-50.5,180.1c-34.6-0.8-69.1-3.2-102.8-10.7c-27.2-6.1-54-15.6-78.1-29.5l61.8-139.9l10.6-24   l0.3-0.8L517,1179.7z"/></g><path class="st19" d="M304.3,1268.5c20.8,12,43.9,20.2,67.4,25.5c29.1,6.5,58.9,8.6,88.7,9.3"/></svg>